<svg width="18" height="18" viewBox="0 0 18 18" fill="none" xmlns="http://www.w3.org/2000/svg">
<path d="M15.6726 2.32743C15.3351 1.98998 14.8773 1.80042 14.4 1.80042C13.9228 1.80042 13.465 1.98998 13.1274 2.32743L6.30005 9.15483V11.7H8.84525L15.6726 4.87263C16.0101 4.53508 16.1997 4.07733 16.1997 3.60003C16.1997 3.12274 16.0101 2.66498 15.6726 2.32743Z" fill="white"/>
<path fill-rule="evenodd" clip-rule="evenodd" d="M1.80005 5.39998C1.80005 4.92259 1.98969 4.46475 2.32726 4.12718C2.66482 3.78962 3.12266 3.59998 3.60005 3.59998H7.20005C7.43874 3.59998 7.66766 3.6948 7.83644 3.86358C8.00523 4.03236 8.10005 4.26128 8.10005 4.49998C8.10005 4.73867 8.00523 4.96759 7.83644 5.13637C7.66766 5.30515 7.43874 5.39998 7.20005 5.39998H3.60005V14.4H12.6V10.8C12.6 10.5613 12.6949 10.3324 12.8637 10.1636C13.0324 9.9948 13.2614 9.89997 13.5 9.89997C13.7387 9.89997 13.9677 9.9948 14.1364 10.1636C14.3052 10.3324 14.4 10.5613 14.4 10.8V14.4C14.4 14.8774 14.2104 15.3352 13.8728 15.6728C13.5353 16.0103 13.0774 16.2 12.6 16.2H3.60005C3.12266 16.2 2.66482 16.0103 2.32726 15.6728C1.98969 15.3352 1.80005 14.8774 1.80005 14.4V5.39998Z" fill="white"/>
</svg>
